name Walk2.mot
datacolumns 19
datarows 17
range 4.35500000 4.43500000
endheader

                time	   L_ground_force_vx	   L_ground_force_vy	   L_ground_force_vz	   L_ground_force_px	   L_ground_force_py	   L_ground_force_pz	   R_ground_force_vx	   R_ground_force_vy	   R_ground_force_vz	   R_ground_force_px	   R_ground_force_py	   R_ground_force_pz	   L_ground_torque_x	   L_ground_torque_y	   L_ground_torque_z	   R_ground_torque_x	   R_ground_torque_y	   R_ground_torque_z	
          4.35500000	          0.00000000	          0.00000000	         -0.00000000	         -0.00000000	          0.00000000	         -0.00000000	         28.66287177	        117.67060532	         -1.62207912	          0.26142351	          0.00000000	          0.10678354	          0.00000000	          0.00000000	          0.00000000	          0.00000000	         -6.28598120	          0.00000000	
          4.36000000	          0.00000000	          0.00000000	         -0.00000000	         -0.00000000	          0.00000000	         -0.00000000	         22.75905552	         88.36865488	         -0.51995334	          0.23540612	          0.00000000	          0.09503558	          0.00000000	          0.00000000	          0.00000000	          0.00000000	         -5.19005428	          0.00000000	
          4.36500000	          0.00000000	          0.00000000	         -0.00000000	         -0.00000000	          0.00000000	         -0.00000000	         17.29301637	         63.02504500	          0.24983209	          0.20475490	          0.00000000	          0.08168577	          0.00000000	          0.00000000	          0.00000000	          0.00000000	         -4.11778262	          0.00000000	
          4.37000000	          0.00000000	          0.00000000	         -0.00000000	         -0.00000000	          0.00000000	         -0.00000000	         12.45056926	         41.90404803	          0.73185845	          0.17071614	          0.00000000	          0.06730412	          0.00000000	          0.00000000	          0.00000000	          0.00000000	         -3.11654931	          0.00000000	
          4.37500000	          0.00000000	          0.00000000	         -0.00000000	         -0.00000000	          0.00000000	         -0.00000000	          8.36319199	         25.05632003	          0.98405869	          0.13564724	          0.00000000	          0.05284731	          0.00000000	          0.00000000	          0.00000000	          0.00000000	         -2.22921991	          0.00000000	
          4.38000000	          0.00000000	          0.00000000	         -0.00000000	         -0.00000000	          0.00000000	         -0.00000000	          5.08062037	         12.27059655	          1.06796782	          0.10243203	          0.00000000	          0.03939747	          0.00000000	          0.00000000	          0.00000000	          0.00000000	         -1.48389435	          0.00000000	
          4.38500000	          0.00000000	          0.00000000	         -0.00000000	         -0.00000000	          0.00000000	         -0.00000000	          2.57375514	          3.10090395	          1.03731378	          0.07303063	          0.00000000	          0.02765648	          0.00000000	          0.00000000	          0.00000000	          0.00000000	         -0.88857340	          0.00000000	
          4.39000000	          0.00000000	          0.00000000	         -0.00000000	         -0.00000000	          0.00000000	         -0.00000000	          0.76259812	         -3.02468628	          0.93561696	          0.04840024	          0.00000000	          0.01793992	          0.00000000	          0.00000000	          0.00000000	          0.00000000	         -0.43653020	          0.00000000	
          4.39500000	          0.00000000	          0.00000000	         -0.00000000	         -0.00000000	          0.00000000	         -0.00000000	         -0.45917408	         -6.71369253	          0.79640478	          0.02877737	          0.00000000	          0.01029005	          0.00000000	          0.00000000	          0.00000000	          0.00000000	         -0.11211939	          0.00000000	
          4.40000000	          0.00000000	          0.00000000	         -0.00000000	         -0.00000000	          0.00000000	         -0.00000000	         -1.20635781	         -8.54840887	          0.64414471	          0.01391767	          0.00000000	          0.00457052	          0.00000000	          0.00000000	          0.00000000	          0.00000000	          0.10478627	          0.00000000	
          4.40500000	          0.00000000	         -0.00000000	         -0.00000000	         -0.00000000	          0.00000000	         -0.00000000	         -1.59010394	         -9.04890113	          0.49555922	          0.00328771	          0.00000000	          0.00054122	          0.00000000	          0.00000000	          0.00000000	          0.00000000	          0.23559634	          0.00000000	
          4.41000000	         -0.00000000	         -0.00000000	         -0.00000000	         -0.00000000	          0.00000000	          0.00000000	         -1.71043491	         -8.65419846	          0.36108148	         -0.00378910	          0.00000000	         -0.00208550	          0.00000000	         -0.00000000	          0.00000000	          0.00000000	          0.30084948	          0.00000000	
          4.41500000	         -0.00000000	         -0.00000000	         -0.00000000	         -0.00000000	          0.00000000	          0.00000000	         -1.65232611	         -7.71664082	          0.24628633	         -0.00802765	          0.00000000	         -0.00360502	          0.00000000	         -0.00000000	          0.00000000	          0.00000000	          0.31890150	          0.00000000	
          4.42000000	         -0.00000000	         -0.00000000	         -0.00000000	         -0.00000000	          0.00000000	          0.00000000	         -1.48438304	         -6.50511029	          0.15319216	         -0.01011085	          0.00000000	         -0.00429435	          0.00000000	         -0.00000000	          0.00000000	          0.00000000	          0.30525665	          0.00000000	
          4.42500000	         -0.00000000	         -0.00000000	          0.00000000	          0.00000000	          0.00000000	          0.00000000	         -1.25928766	         -5.21370366	          0.08137702	         -0.01064713	          0.00000000	         -0.00439677	          0.00000000	         -0.00000000	          0.00000000	          0.00000000	          0.27236437	          0.00000000	
          4.43000000	         -0.00000000	         -0.00000000	          0.00000000	          0.00000000	          0.00000000	          0.00000000	         -1.01534392	         -3.97320868	          0.02888742	         -0.01014897	          0.00000000	         -0.00411472	          0.00000000	         -0.00000000	          0.00000000	          0.00000000	          0.22973046	          0.00000000	
          4.43500000	         -0.00000000	         -0.00000000	          0.00000000	          0.00000000	          0.00000000	          0.00000000	         -0.77860610	         -2.86347052	         -0.00705778	         -0.00902685	          0.00000000	         -0.00360842	          0.00000000	         -0.00000000	          0.00000000	          0.00000000	          0.18422125	          0.00000000	
